<?xml version="1.0" encoding="UTF-8"?>
<!-- Generator: Adobe Illustrator 23.0.3, SVG Export Plug-In . SVG Version: 6.00 Build 0)  -->
<svg version="1.1" id="Capa_1" xmlns="http://www.w3.org/2000/svg" xmlns:xlink="http://www.w3.org/1999/xlink" x="0px" y="0px" viewBox="0 0 128.4 64" style="enable-background:new 0 0 128.4 64;" xml:space="preserve">
<style type="text/css">
	.st0{fill:#FDD402;}
	.st1{fill:#FBBE02;}
	.st2{fill:#FFFFFF;}
	.st3{fill:#FCBE00;}
</style>
<g>
	<path class="st0" d="M53.1,60.3c-13.9,3.4-27.8,3.4-41.6,0c-3.3-0.9-7-4.5-7.8-7.8c-3.4-13.9-3.4-27.8,0-41.6   c0.9-3.3,4.5-7,7.8-7.8c13.9-3.4,27.8-3.4,41.6,0c3.3,0.9,7,4.5,7.8,7.8c3.4,13.9,3.4,27.8,0,41.6C60.1,55.8,56.5,59.5,53.1,60.3z"/>
	<g>
		<circle cx="29.2" cy="30.5" r="20.3"/>
		<path class="st1" d="M54.2,52.5c-0.2,0-0.3-0.1-0.5-0.2l-11.2-7.4c-0.9,0.7-1.9,1.5-2.8,2.1c-0.2,0.1-0.2,0.1-0.4,0.1    c-0.2,0-0.5-0.1-0.6-0.3l-4.2-5.5L20.2,23c-0.2-0.3-0.2-0.7,0.1-0.9c0.2-0.2,0.3-0.2,0.6-0.2c0.2,0,0.4,0.1,0.5,0.2l17.3,14.7    c0.6-0.8,1.1-1.8,1.4-2.7c0.1-0.2,0.3-0.5,0.6-0.6c0.1,0,0.1,0,0.2,0c0.2,0,0.5,0.1,0.6,0.3l4.5,5.9l8.9,11.5    c0.2,0.3,0.2,0.7-0.1,0.9C54.5,52.3,54.4,52.5,54.2,52.5z"/>
		<path d="M20.8,22.5l18,15.2c0.9-1,1.6-2.3,2-3.6l4.5,5.9l8.9,11.7l-11.6-7.7c-0.9,0.9-2,1.7-3.1,2.3l-4.3-5.6L20.8,22.5 M20.8,21    c-0.4,0-0.7,0.2-1,0.5c-0.6,0.6-0.6,1.4-0.2,2l14.2,18.4l4.2,5.5c0.3,0.4,0.7,0.6,1.2,0.6c0.3,0,0.6-0.1,0.7-0.2    c0.9-0.6,1.7-1.1,2.5-1.8l10.8,7c0.2,0.2,0.6,0.2,0.8,0.2c0.4,0,0.8-0.2,1.1-0.5c0.6-0.6,0.6-1.3,0.1-2l-9-11.6l-4.5-5.9    c-0.3-0.4-0.7-0.6-1.2-0.6c-0.1,0-0.2,0-0.2,0c-0.6,0.1-0.9,0.5-1.2,0.9c-0.2,0.7-0.6,1.3-0.9,2L21.7,21.5    C21.5,21.2,21.2,21,20.8,21L20.8,21z"/>
		<path class="st2" d="M33.5,41.5c-1.1,0.5-2.2,0.7-3.4,0.7c-6.5,0.6-12-4.3-12.6-10.7c-0.2-2.7,0.6-5.5,2.1-7.7    c0.5-0.7,0.9-1.2,1.6-1.9c1.9-1.9,4.3-3,6.9-3.2c6.6-0.6,12.3,4.3,12.9,10.8c0.1,0.7,0.1,1.2,0.1,2l5.2,6.7    c4.2-9.5,0-20.6-9.5-24.9c-9.5-4.2-20.5,0-24.6,9.5c0,0.1-0.1,0.2-0.1,0.2c-4.2,9.6,0,20.7,9.5,25c2.9,1.2,6,1.8,9.2,1.6    c2.5-0.2,4.9-1,7.1-2.2L33.5,41.5z"/>
	</g>
</g>
</svg>